<svg xmlns="http://www.w3.org/2000/svg" width="567" height="312" viewBox="0 0 567 312" role="img" aria-label="Jeju island refined silhouette">
  <path d="M 423.13 10.53 L 421.16 11.03 L 419.22 11.82 L 417.35 12.78 L 415.55 13.90 L 413.84 15.27 L 412.18 16.71 L 410.47 18.06 L 408.66 19.16 L 406.74 20.00 L 404.76 20.48 L 402.72 20.52 L 400.72 20.11 L 398.75 19.40 L 396.84 18.53 L 394.95 17.61 L 393.03 16.78 L 391.10 16.12 L 389.14 15.77 L 387.19 15.84 L 385.20 16.26 L 383.25 16.97 L 381.34 17.84 L 379.53 18.95 L 377.75 20.14 L 375.96 21.28 L 374.03 22.10 L 372.04 22.54 L 369.96 22.56 L 367.88 22.34 L 365.75 22.23 L 363.64 22.38 L 361.58 22.88 L 359.54 23.43 L 357.51 24.00 L 355.48 24.56 L 353.46 25.18 L 351.49 25.89 L 349.52 26.60 L 347.57 27.36 L 345.62 27.93 L 343.68 28.27 L 341.67 28.22 L 339.57 28.19 L 337.43 28.26 L 335.33 28.67 L 333.31 29.26 L 331.39 30.10 L 329.56 31.15 L 327.82 32.44 L 326.16 33.89 L 324.47 35.29 L 322.70 36.49 L 320.81 37.39 L 318.88 38.21 L 316.95 39.03 L 315.09 40.01 L 313.24 41.03 L 311.38 41.99 L 309.37 42.63 L 307.27 42.84 L 305.12 42.69 L 303.00 42.40 L 300.89 42.31 L 298.82 42.55 L 296.82 43.17 L 294.93 44.09 L 293.14 45.23 L 291.38 46.45 L 289.56 47.54 L 287.65 48.18 L 285.67 48.41 L 283.66 48.15 L 281.60 47.78 L 279.52 47.33 L 277.39 47.22 L 275.26 47.33 L 273.18 47.56 L 271.10 47.56 L 269.01 47.33 L 266.88 47.22 L 264.77 47.37 L 262.72 47.89 L 260.71 48.52 L 258.80 49.39 L 256.92 50.31 L 255.07 51.31 L 253.11 52.07 L 251.13 52.52 L 249.06 52.55 L 246.97 52.33 L 244.84 52.22 L 242.77 52.46 L 240.91 53.25 L 239.27 54.44 L 237.81 55.93 L 236.26 57.36 L 234.54 58.55 L 232.60 59.36 L 230.59 59.97 L 228.56 60.53 L 226.58 61.23 L 224.67 62.09 L 222.80 63.05 L 220.93 64.01 L 219.05 64.94 L 217.18 65.92 L 215.34 66.95 L 213.53 68.04 L 211.65 68.97 L 209.71 69.78 L 207.72 70.44 L 205.72 71.07 L 203.71 71.70 L 201.66 72.22 L 199.57 72.67 L 197.43 72.97 L 195.29 73.28 L 193.16 73.57 L 191.05 73.69 L 188.95 73.57 L 186.88 73.14 L 184.80 72.68 L 182.75 72.39 L 180.67 72.46 L 178.65 72.90 L 176.66 73.56 L 174.75 74.43 L 172.90 75.43 L 171.10 76.56 L 169.27 77.62 L 167.44 78.66 L 165.60 79.70 L 163.80 80.83 L 162.00 81.97 L 160.19 83.07 L 158.37 84.13 L 156.45 84.98 L 154.49 85.50 L 152.43 85.56 L 150.35 85.33 L 148.21 85.01 L 146.08 84.68 L 144.00 84.47 L 141.93 84.48 L 139.91 84.84 L 137.92 85.50 L 136.14 86.52 L 134.56 87.88 L 133.16 89.50 L 131.70 91.13 L 130.09 92.56 L 128.31 93.61 L 126.41 94.18 L 124.45 94.37 L 122.43 94.42 L 120.42 94.69 L 118.52 95.30 L 116.93 96.37 L 115.77 97.85 L 114.95 99.66 L 114.14 101.56 L 113.12 103.40 L 111.74 105.04 L 110.14 106.49 L 108.36 107.67 L 106.52 108.69 L 104.60 109.54 L 102.72 110.46 L 100.90 111.54 L 99.17 112.83 L 97.43 114.12 L 95.63 115.25 L 93.80 116.31 L 91.99 117.40 L 90.21 118.58 L 88.40 119.67 L 86.55 120.62 L 84.78 121.60 L 83.16 122.77 L 81.66 124.22 L 80.11 125.71 L 78.49 127.18 L 76.87 128.58 L 75.40 130.11 L 74.20 131.82 L 73.25 133.69 L 72.44 135.62 L 71.56 137.52 L 70.37 139.24 L 68.82 140.61 L 66.95 141.52 L 64.91 142.06 L 62.84 142.54 L 60.91 143.20 L 59.27 144.22 L 58.09 145.63 L 57.32 147.40 L 56.85 149.42 L 56.49 151.54 L 56.21 153.68 L 55.84 155.80 L 55.22 157.81 L 54.13 159.63 L 52.70 161.30 L 51.17 162.94 L 49.84 164.65 L 48.74 166.46 L 47.72 168.31 L 46.54 170.05 L 45.09 171.61 L 43.44 173.03 L 41.74 174.39 L 40.00 175.67 L 38.17 176.72 L 36.24 177.53 L 34.21 178.11 L 32.18 178.67 L 30.18 179.34 L 28.32 180.31 L 26.65 181.61 L 25.23 183.21 L 24.07 184.98 L 23.16 186.87 L 22.52 188.88 L 22.05 190.95 L 21.50 192.99 L 20.59 194.85 L 19.24 196.46 L 17.66 197.85 L 16.06 199.13 L 14.63 200.52 L 13.41 202.12 L 12.59 204.00 L 12.16 206.08 L 12.02 208.29 L 12.00 210.55 L 12.00 212.82 L 12.00 215.09 L 12.00 217.35 L 11.99 219.62 L 11.78 221.80 L 11.36 223.89 L 10.83 225.86 L 10.56 227.86 L 10.63 229.89 L 10.84 232.05 L 10.98 234.26 L 10.89 236.47 L 10.67 238.65 L 10.35 240.77 L 10.25 242.89 L 10.56 244.94 L 11.42 246.85 L 12.61 248.63 L 13.80 250.40 L 14.77 252.27 L 15.60 254.19 L 16.43 256.11 L 17.24 258.05 L 17.65 260.05 L 17.65 262.14 L 17.33 264.26 L 17.11 266.43 L 17.11 268.61 L 17.44 270.74 L 18.15 272.71 L 19.18 274.55 L 20.53 276.20 L 22.13 277.54 L 23.96 278.53 L 25.92 279.10 L 27.91 279.36 L 29.91 279.19 L 31.91 278.93 L 33.90 278.67 L 35.89 278.84 L 37.87 279.30 L 39.78 280.13 L 41.47 281.23 L 42.65 282.66 L 43.18 284.40 L 43.20 286.39 L 43.16 288.52 L 43.49 290.46 L 44.46 291.91 L 46.05 292.56 L 47.99 292.50 L 50.02 291.98 L 52.01 291.33 L 54.05 290.76 L 56.11 290.36 L 58.10 290.44 L 59.90 291.06 L 61.40 292.33 L 62.77 293.84 L 63.98 294.99 L 65.00 295.19 L 65.64 294.17 L 66.10 292.39 L 66.75 290.50 L 67.98 289.10 L 69.77 288.33 L 71.91 288.05 L 74.16 288.00 L 76.43 288.00 L 78.69 288.00 L 80.96 288.00 L 83.23 288.00 L 85.50 288.00 L 87.76 288.00 L 90.03 288.00 L 92.30 288.00 L 94.57 288.00 L 96.83 288.00 L 99.10 288.00 L 101.37 288.00 L 103.60 288.09 L 105.67 288.47 L 107.32 289.40 L 108.40 290.93 L 108.87 292.93 L 109.00 295.14 L 109.15 297.35 L 109.68 299.31 L 110.84 300.77 L 112.54 301.53 L 114.55 301.61 L 116.53 301.15 L 118.29 300.26 L 119.58 298.99 L 120.28 297.35 L 120.38 295.42 L 120.31 293.35 L 120.50 291.30 L 121.29 289.50 L 122.66 288.04 L 124.44 287.04 L 126.44 286.40 L 128.55 286.22 L 130.67 286.33 L 132.80 286.67 L 134.98 286.89 L 137.15 287.11 L 139.33 287.33 L 141.41 287.78 L 143.50 288.22 L 145.58 288.67 L 147.68 289.07 L 149.72 289.63 L 151.66 290.41 L 153.61 291.18 L 155.65 291.73 L 157.78 291.84 L 159.93 291.66 L 162.01 291.21 L 164.04 290.64 L 166.04 289.99 L 168.04 289.34 L 170.04 288.89 L 172.02 288.67 L 174.01 288.88 L 175.99 289.34 L 177.95 290.10 L 179.86 290.74 L 181.77 291.15 L 183.75 291.17 L 185.87 291.09 L 188.08 291.00 L 190.30 290.89 L 192.48 290.67 L 194.61 290.33 L 196.74 290.00 L 198.86 289.66 L 200.94 289.20 L 202.98 288.65 L 204.98 288.00 L 206.98 287.35 L 209.00 286.76 L 211.03 286.19 L 213.05 285.84 L 215.01 285.74 L 216.91 286.23 L 218.59 287.22 L 219.99 288.70 L 221.10 290.45 L 222.16 292.27 L 223.39 293.96 L 224.95 295.34 L 226.78 296.28 L 228.84 296.78 L 231.02 296.92 L 233.20 296.80 L 235.31 296.43 L 237.35 295.87 L 239.34 295.21 L 241.34 294.54 L 243.30 294.03 L 245.26 293.74 L 247.27 293.78 L 249.35 293.78 L 251.46 293.61 L 253.45 293.04 L 255.27 292.21 L 256.90 291.07 L 258.45 289.72 L 260.06 288.37 L 261.85 287.27 L 263.78 286.64 L 265.81 286.46 L 267.85 286.53 L 269.88 286.62 L 271.88 286.63 L 273.84 286.90 L 275.71 287.56 L 277.27 288.83 L 278.34 290.52 L 278.84 292.58 L 279.12 294.73 L 279.55 296.75 L 280.53 298.36 L 282.05 299.48 L 283.95 300.18 L 286.02 300.65 L 288.16 300.84 L 290.32 300.78 L 292.42 300.40 L 294.35 299.73 L 295.95 298.68 L 297.19 297.25 L 298.03 295.47 L 298.61 293.48 L 298.98 291.37 L 299.45 289.30 L 300.29 287.44 L 301.65 285.95 L 303.42 284.93 L 305.44 284.33 L 307.53 284.24 L 309.56 284.66 L 311.44 285.61 L 313.27 286.66 L 315.19 287.49 L 317.27 287.82 L 319.42 287.76 L 321.52 287.37 L 323.56 286.82 L 325.53 286.11 L 327.38 285.25 L 329.05 284.12 L 330.45 282.66 L 331.77 281.00 L 333.09 279.35 L 334.64 277.92 L 336.36 276.75 L 338.22 275.78 L 340.09 274.80 L 341.86 273.73 L 343.44 272.44 L 344.81 271.00 L 345.98 269.35 L 347.13 267.62 L 348.47 266.04 L 350.07 264.75 L 351.95 263.90 L 353.94 263.23 L 356.00 262.73 L 358.03 262.17 L 360.11 261.71 L 362.21 261.30 L 364.35 261.20 L 366.48 261.33 L 368.61 261.67 L 370.74 261.78 L 372.82 261.78 L 374.86 261.67 L 376.90 261.78 L 379.01 261.85 L 381.17 261.81 L 383.31 261.50 L 385.39 261.04 L 387.42 260.48 L 389.43 259.85 L 391.42 259.19 L 393.43 258.58 L 395.47 258.01 L 397.50 257.45 L 399.51 256.83 L 401.50 256.17 L 403.50 255.50 L 405.49 254.84 L 407.48 254.17 L 409.52 253.62 L 411.59 253.31 L 413.71 253.34 L 415.82 253.57 L 417.92 253.69 L 419.88 253.37 L 421.62 252.47 L 423.12 251.09 L 424.63 249.58 L 426.23 248.11 L 427.94 246.76 L 429.64 245.42 L 431.25 244.04 L 432.77 242.57 L 434.21 241.01 L 435.69 239.40 L 437.23 237.77 L 438.84 236.17 L 440.51 234.73 L 442.28 233.54 L 444.23 232.76 L 446.25 232.39 L 448.34 232.42 L 450.41 232.73 L 452.51 233.13 L 454.61 233.53 L 456.77 233.80 L 458.93 233.84 L 461.08 233.67 L 463.17 233.22 L 465.25 232.78 L 467.29 232.22 L 469.32 231.89 L 471.31 231.67 L 473.33 231.72 L 475.39 231.67 L 477.45 231.39 L 479.45 230.76 L 481.33 229.82 L 483.10 228.61 L 484.77 227.17 L 486.32 225.58 L 487.73 223.90 L 488.82 222.08 L 489.46 220.16 L 489.58 218.12 L 489.38 216.03 L 489.27 213.91 L 489.57 211.87 L 490.48 209.99 L 491.80 208.27 L 493.35 206.65 L 494.99 205.12 L 496.58 203.64 L 498.04 202.18 L 499.32 200.57 L 500.56 198.88 L 501.92 197.18 L 503.36 195.51 L 504.72 193.81 L 505.78 191.98 L 506.49 190.00 L 506.85 187.88 L 507.13 185.73 L 507.54 183.63 L 508.26 181.67 L 509.14 179.76 L 510.15 177.91 L 511.29 176.12 L 512.59 174.39 L 513.89 172.66 L 515.10 170.90 L 516.32 169.15 L 517.74 167.57 L 519.37 166.20 L 521.17 165.06 L 523.02 164.05 L 524.93 163.19 L 526.88 162.43 L 528.86 161.73 L 530.69 160.84 L 532.22 159.65 L 533.16 158.07 L 533.50 156.21 L 533.38 154.16 L 533.28 152.06 L 533.46 149.99 L 534.00 147.96 L 534.74 146.00 L 535.67 144.15 L 536.99 142.63 L 538.67 141.68 L 540.67 141.41 L 542.75 141.57 L 544.86 141.95 L 546.96 142.31 L 549.03 142.54 L 551.06 142.41 L 553.03 141.88 L 554.76 140.92 L 555.95 139.61 L 556.33 137.95 L 555.96 136.10 L 555.24 134.14 L 554.47 132.19 L 553.75 130.23 L 552.92 128.30 L 552.06 126.39 L 551.18 124.49 L 550.41 122.54 L 549.65 120.59 L 548.97 118.60 L 548.40 116.57 L 548.11 114.42 L 548.00 112.20 L 548.00 109.93 L 548.00 107.67 L 548.00 105.40 L 548.00 103.13 L 548.00 100.87 L 547.85 98.66 L 547.32 96.70 L 546.21 95.13 L 544.59 94.03 L 542.73 93.11 L 540.85 92.16 L 539.10 90.91 L 537.44 89.44 L 535.88 87.82 L 534.54 86.11 L 533.67 84.27 L 533.56 82.33 L 534.13 80.42 L 535.13 78.56 L 536.17 76.72 L 537.15 74.86 L 538.07 72.98 L 538.99 71.09 L 539.83 69.17 L 540.46 67.17 L 540.72 65.10 L 540.62 62.99 L 540.09 60.96 L 539.35 59.00 L 538.29 57.18 L 537.08 55.41 L 535.69 53.72 L 534.34 52.01 L 533.04 50.35 L 531.70 48.87 L 530.11 47.83 L 528.23 47.16 L 526.16 46.75 L 524.05 46.38 L 521.90 46.10 L 519.75 45.81 L 517.62 45.47 L 515.56 44.97 L 513.55 44.36 L 511.59 43.62 L 509.69 42.72 L 507.95 41.54 L 506.35 40.16 L 504.86 38.70 L 503.30 37.37 L 501.61 36.22 L 499.74 35.32 L 497.73 34.68 L 495.66 34.33 L 493.55 34.31 L 491.43 34.52 L 489.28 34.79 L 487.12 34.84 L 485.04 34.48 L 483.14 33.61 L 481.50 32.28 L 480.23 30.59 L 479.33 28.70 L 478.75 26.67 L 478.22 24.62 L 477.61 22.67 L 476.66 20.93 L 475.37 19.47 L 473.77 18.19 L 472.03 17.01 L 470.24 15.86 L 468.42 14.76 L 466.57 13.77 L 464.63 12.97 L 462.62 12.46 L 460.55 12.34 L 458.49 12.63 L 456.45 13.18 L 454.46 13.84 L 452.42 14.40 L 450.31 14.78 L 448.11 14.95 L 445.87 15.00 L 443.65 14.89 L 441.47 14.67 L 439.35 14.33 L 437.22 13.99 L 435.14 13.54 L 433.13 12.91 L 431.17 12.17 L 429.21 11.42 L 427.19 10.84 L 425.16 10.47 Z" fill="#000000"/>
</svg>